<?xml version="1.0" encoding="UTF-8"?>
<svg width="48" height="48" viewBox="0 0 48 48" fill="none" xmlns="http://www.w3.org/2000/svg">
  <g xmlns="http://www.w3.org/2000/svg">
    <path d="M421 180.863v-62.057l-55.7-55.7c-5.858-5.858-5.858-15.355 0-21.213s15.355-5.858 21.213 0l55.7 55.7A30 30 0 0 1 451 118.806v32.056z" fill="#bdf7f7" data-original="#bdf7f7"></path>
    <path d="m451 264.501-30-53.638V439.5c0 8.284-6.716 15-15 15s-15-6.716-15-15v-115c0-33.137-26.863-60-60-60l-30 15 30 15c16.569 0 30 13.431 30 30v115c0 24.853 20.147 45 45 45s45-20.147 45-45z" fill="#504b83" data-original="#504b83"></path>
    <path d="M301 7.5h-30v120l60-60v-30c0-16.57-13.43-30-30-30z" fill="#f52314" data-original="#f52314"></path>
    <path d="M271 7.5H106c-16.57 0-30 13.43-30 30v30l225 75v-105c0-16.57-13.43-30-30-30z" fill="#ff4d1c" data-original="#ff4d1c"></path>
    <path d="M331 324.5v165H211l90-165z" fill="#f52314" data-original="#f52314"></path>
    <path d="M76 324.5h225v165H76z" fill="#ff4d1c" data-original="#ff4d1c"></path>
    <path d="M331 474.5h-30v30h30c8.284 0 15-6.716 15-15s-6.716-15-15-15z" fill="#5b3364" data-original="#5b3364"></path>
    <path d="M316 489.5c0-8.284-6.716-15-15-15H76c-8.284 0-15 6.716-15 15s6.716 15 15 15h225c8.284 0 15-6.716 15-15z" fill="#504b83" data-original="#504b83"></path>
    <path d="M301 67.5 241 196l60 128.5h30v-257z" fill="#7cf0ee" data-original="#7cf0ee"></path>
    <path d="M76 67.5v257h225v-90L211 166l90-68.5v-30z" fill="#bdf7f7" data-original="#bdf7f7"></path>
    <path d="m226 264.5-22.004 15 22.004 15h45v-30z" fill="#5b3364" data-original="#5b3364"></path>
    <path d="m181 264.5-22.004 15 22.004 15h45v-30z" fill="#504b83" data-original="#504b83"></path>
    <path d="M136 264.5h45v30h-45z" fill="#4663a2" data-original="#4663a2"></path>
    <path d="M271 97.5 211 166l60 68.5h30v-137z" fill="#3193e0" data-original="#3193e0"></path>
    <path d="M106 97.5h165v137H106z" fill="#26abff" data-original="#26abff"></path>
    <path d="m421 150.863-15 15v83.638l15 15h30V150.864z" fill="#f52314" data-original="#f52314"></path>
    <path d="M406 150.863c-8.284 0-15 6.716-15 15v83.638c0 8.284 6.716 15 15 15h15V150.864z" fill="#ff4d1c" data-original="#ff4d1c"></path>
    <path d="M308.5 234.5v-137A7.5 7.5 0 0 0 301 90H106a7.5 7.5 0 0 0-7.5 7.5v137a7.5 7.5 0 0 0 7.5 7.5h195a7.5 7.5 0 0 0 7.5-7.5zm-15-7.5h-180V105h180zM136 257a7.5 7.5 0 0 0-7.5 7.5v30a7.5 7.5 0 0 0 7.5 7.5h135a7.5 7.5 0 0 0 7.5-7.5v-30a7.5 7.5 0 0 0-7.5-7.5zm82.5 15v15h-30v-15zm-75 0h30v15h-30zm120 15h-30v-15h30z" data-original="#000000"></path>
    <path d="m447.517 92.291-55.7-55.7c-4.25-4.25-9.9-6.59-15.91-6.59s-11.66 2.341-15.91 6.59c-8.771 8.773-8.771 23.046 0 31.819l53.504 53.503v21.45h-7.5c-12.406 0-22.5 10.093-22.5 22.5v83.638c0 12.407 10.094 22.5 22.5 22.5h7.5V439.5c0 4.136-3.364 7.5-7.5 7.5s-7.5-3.364-7.5-7.5v-115c0-37.22-30.28-67.5-67.5-67.5a7.5 7.5 0 0 0-7.5 7.5V317h-240V75h240v159.5c0 4.142 3.357 7.5 7.5 7.5s7.5-3.358 7.5-7.5v-197C338.5 16.822 321.678 0 301 0H106C85.322 0 68.5 16.822 68.5 37.5v430.79c-8.729 3.096-15 11.432-15 21.21 0 12.407 10.094 22.5 22.5 22.5h255c12.406 0 22.5-10.093 22.5-22.5 0-9.777-6.271-18.114-15-21.21v-165c8.729 3.096 15 11.432 15 21.21v115c0 28.949 23.552 52.5 52.5 52.5s52.5-23.551 52.5-52.5V118.807c0-10.016-3.9-19.433-10.983-26.516zm-21.213 21.212-55.7-55.7c-2.924-2.924-2.924-7.682 0-10.606 1.416-1.417 3.3-2.197 5.303-2.197s3.887.78 5.303 2.197l55.7 55.7c4.25 4.25 6.591 9.9 6.591 15.91v24.557h-15v-24.557a7.508 7.508 0 0 0-2.197-5.304zM398.5 249.501v-83.638c0-4.135 3.364-7.5 7.5-7.5h37.5V257H406c-4.136.001-7.5-3.363-7.5-7.499zM323.5 332v135h-240V332zM106 15h195c12.406 0 22.5 10.093 22.5 22.5V60h-240V37.5C83.5 25.093 93.594 15 106 15zm225 482H76c-4.136 0-7.5-3.364-7.5-7.5s3.364-7.5 7.5-7.5h255c4.136 0 7.5 3.364 7.5 7.5s-3.364 7.5-7.5 7.5zm75-20c-20.678 0-37.5-16.822-37.5-37.5v-115c0-18.11-12.904-33.261-30-36.745v-15.22c25.408 3.65 45 25.563 45 51.966v115c0 12.407 10.094 22.5 22.5 22.5s22.5-10.093 22.5-22.5v-167.5h15V439.5c0 20.678-16.822 37.5-37.5 37.5z" data-original="#000000"></path>
  </g>
</svg>
